<?xml version="1.0" standalone="no"?>
<!DOCTYPE svg PUBLIC "-//W3C//DTD SVG 20010904//EN"
 "http://www.w3.org/TR/2001/REC-SVG-20010904/DTD/svg10.dtd">
<svg version="1.0" xmlns="http://www.w3.org/2000/svg"
 width="561.000000pt" height="561.000000pt" viewBox="0 0 561.000000 561.000000"
 preserveAspectRatio="xMidYMid meet">
<metadata>
Created by potrace 1.11, written by Peter Selinger 2001-2013
</metadata>
<g transform="translate(0.000000,561.000000) scale(0.100000,-0.100000)"
fill="#000000" stroke="none">
<path d="M95 3896 c-44 -19 -85 -71 -86 -109 0 -18 -1 -467 -1 -998 0 -1064
-4 -1002 61 -1048 38 -27 114 -28 157 -2 67 41 64 1 64 910 0 452 2 821 5 821
5 0 429 -322 453 -345 11 -10 4 -19 -38 -50 -59 -44 -80 -78 -80 -136 0 -108
117 -174 210 -118 19 12 61 41 92 65 31 24 60 44 64 44 4 0 39 -24 78 -54 89
-67 107 -76 148 -76 75 0 139 63 140 138 1 54 -23 94 -82 137 l-50 37 68 52
c178 137 392 296 403 298 10 2 13 -170 14 -817 1 -554 5 -828 12 -845 17 -40
56 -69 104 -78 51 -10 83 -1 117 31 52 48 50 4 50 1058 0 904 -1 990 -16 1020
-37 73 -126 99 -194 57 -32 -19 -334 -247 -692 -520 -48 -37 -93 -68 -98 -68
-8 0 -73 48 -283 210 -374 288 -499 382 -521 390 -34 13 -63 12 -99 -4z"/>
<path d="M3064 3896 c-60 -26 -94 -97 -79 -166 4 -18 30 -58 59 -89 88 -97
194 -215 213 -237 10 -12 47 -54 83 -94 36 -40 72 -81 80 -90 40 -45 157 -175
170 -189 9 -9 49 -54 90 -101 41 -46 81 -91 88 -98 17 -19 16 -22 -24 -67
-101 -115 -172 -194 -299 -335 -77 -86 -171 -191 -210 -235 -38 -43 -77 -85
-85 -94 -65 -66 -151 -172 -160 -197 -18 -45 -4 -106 32 -143 40 -41 83 -53
148 -41 20 4 46 3 58 -1 24 -9 29 0 10 19 -8 8 -8 12 -1 12 6 0 13 -7 17 -15
3 -8 17 -15 31 -15 18 0 24 4 19 13 -6 9 -4 9 7 0 15 -15 53 -18 44 -3 -3 5 7
3 22 -5 31 -16 41 -12 23 10 -7 8 -8 15 -2 15 5 0 12 -7 16 -15 3 -8 17 -15
31 -15 18 0 24 4 19 12 -6 11 -4 11 7 1 15 -15 53 -18 44 -3 -3 5 7 3 22 -5
31 -16 41 -12 23 10 -7 8 -8 15 -2 15 5 0 12 -7 16 -15 3 -8 17 -15 31 -15 18
0 24 4 19 13 -6 9 -4 9 7 -1 15 -14 53 -17 44 -2 -3 5 7 3 22 -5 31 -16 41
-12 23 10 -7 8 -8 15 -2 15 5 0 12 -7 16 -15 3 -8 17 -15 31 -15 18 0 24 4 19
13 -6 9 -5 9 7 0 18 -15 247 -17 265 -3 8 8 14 8 19 0 3 -5 22 -10 40 -10 28
0 33 3 29 18 -5 16 -5 16 6 0 8 -14 25 -18 73 -18 35 0 68 5 74 11 8 8 13 8
17 0 4 -6 23 -11 41 -11 28 0 33 3 29 18 -5 16 -5 16 6 0 8 -14 25 -18 73 -18
35 0 68 5 74 11 8 8 13 8 17 0 4 -6 23 -11 41 -11 28 0 33 3 28 18 -5 15 -4
15 9 -1 12 -16 25 -18 81 -15 37 1 67 1 67 -2 0 -3 22 -5 50 -4 84 4 141 62
142 145 0 46 -15 71 -114 180 -36 41 -75 83 -85 95 -16 19 -154 172 -178 198
-6 6 -44 49 -85 96 -41 46 -84 94 -95 106 -11 11 -35 38 -54 60 -19 21 -70 78
-113 126 l-78 86 27 33 c35 42 75 88 89 103 5 6 52 58 104 116 51 58 96 107
99 110 3 3 40 43 81 90 41 47 80 90 85 96 31 34 159 177 200 224 27 30 56 62
65 70 34 30 52 71 52 112 -1 58 -17 89 -59 118 l-37 25 -890 2 c-718 1 -897
-1 -922 -11z m1439 -279 c-1 -7 -64 -78 -158 -181 -5 -6 -66 -74 -135 -151
-69 -77 -140 -157 -159 -177 -19 -21 -40 -47 -48 -58 -8 -11 -18 -20 -22 -20
-5 0 -55 52 -112 116 -57 65 -108 122 -114 128 -21 23 -191 212 -222 246 -55
61 -83 95 -83 100 0 3 237 5 528 5 290 0 526 -4 525 -8z m-402 -1157 c37 -41
76 -84 86 -96 15 -18 149 -167 178 -198 6 -6 41 -46 79 -88 67 -77 68 -78 40
-78 -35 -1 -869 -1 -973 0 -73 0 -74 0 -55 18 10 11 51 54 89 97 39 44 77 86
85 95 8 9 49 54 90 101 41 46 79 89 85 95 82 88 161 179 164 187 2 6 17 -5 34
-24 17 -19 61 -68 98 -109z m-614 -497 c1 -19 -1 -22 -8 -12 -11 17 -12 39 -1
39 4 0 8 -12 9 -27z m39 18 c-4 -5 0 -11 6 -14 7 -3 3 -4 -8 -4 -21 1 -23 27
-2 27 5 0 7 -4 4 -9z m40 -6 c-3 -23 -12 -26 -13 -5 -1 11 2 20 7 20 4 0 7 -7
6 -15z m74 0 c-7 -8 -17 -15 -23 -15 -6 0 -2 7 9 15 25 19 30 19 14 0z m46 -5
c5 1 10 -4 12 -12 3 -11 2 -11 -6 0 -5 8 -13 13 -18 12 -5 -1 -10 4 -12 12 -3
11 -2 11 6 0 5 -8 13 -13 18 -12z m79 10 c-3 -5 0 -10 7 -10 9 0 9 -3 -2 -10
-8 -5 -19 -10 -25 -10 -5 0 -3 5 5 10 8 5 11 10 7 10 -9 0 1 20 9 20 3 0 2 -4
-1 -10z m45 6 c0 -3 -4 -8 -10 -11 -5 -3 -10 -1 -10 4 0 6 5 11 10 11 6 0 10
-2 10 -4z m62 -38 c-6 -6 -12 -6 -17 3 -6 8 -4 10 5 4 9 -5 10 -1 6 16 -6 21
-6 22 5 6 7 -13 8 -22 1 -29z m54 24 c-10 -2 -22 0 -28 6 -6 6 0 7 19 4 21 -5
23 -7 9 -10z m120 3 c-3 -23 -12 -26 -13 -5 -1 11 2 20 7 20 4 0 7 -7 6 -15z
m74 0 c-7 -8 -17 -15 -23 -15 -6 0 -2 7 9 15 25 19 30 19 14 0z m46 -5 c5 1
10 -4 12 -12 3 -11 2 -11 -6 0 -5 8 -13 13 -18 12 -5 -1 -10 4 -12 12 -3 11
-2 11 6 0 5 -8 13 -13 18 -12z m79 10 c-3 -5 0 -10 7 -10 9 0 9 -3 -2 -10 -8
-5 -19 -10 -25 -10 -5 0 -3 5 5 10 8 5 11 10 7 10 -9 0 1 20 9 20 3 0 2 -4 -1
-10z m45 6 c0 -3 -4 -8 -10 -11 -5 -3 -10 -1 -10 4 0 6 5 11 10 11 6 0 10 -2
10 -4z m62 -38 c-6 -6 -12 -6 -17 3 -6 8 -4 10 5 4 9 -5 10 -1 6 16 -6 21 -6
22 5 6 7 -13 8 -22 1 -29z m54 24 c-10 -2 -22 0 -28 6 -6 6 0 7 19 4 21 -5 23
-7 9 -10z m91 12 c-3 -3 -12 -4 -19 -1 -8 3 -5 6 6 6 11 1 17 -2 13 -5z m-511
-16 c5 -7 3 -8 -6 -3 -10 6 -12 4 -6 -11 5 -14 4 -16 -5 -7 -6 6 -8 16 -5 22
9 14 13 14 22 -1z m480 0 c5 -7 3 -8 -6 -3 -10 6 -12 4 -6 -11 5 -14 4 -16 -5
-7 -6 6 -8 16 -5 22 9 14 13 14 22 -1z m-741 -7 c3 -5 2 -12 -3 -15 -5 -3 -9
1 -9 9 0 17 3 19 12 6z m480 0 c3 -5 2 -12 -3 -15 -5 -3 -9 1 -9 9 0 17 3 19
12 6z m-621 -13 c-5 -7 -2 -9 9 -5 11 4 14 2 10 -9 -4 -11 -9 -12 -19 -3 -12
10 -11 29 2 29 3 0 2 -5 -2 -12z m81 3 c3 -6 -5 -15 -17 -21 -21 -10 -21 -10
-6 3 10 8 15 17 11 20 -3 4 -4 7 0 7 3 0 8 -4 12 -9z m399 -3 c-5 -7 -2 -9 8
-6 8 4 15 0 15 -7 0 -10 -5 -11 -19 -4 -16 9 -17 29 -2 29 3 0 2 -5 -2 -12z
m82 -13 c1 -9 -4 -11 -14 -7 -10 4 -12 7 -4 10 7 2 9 9 5 15 -3 7 -2 8 2 4 5
-4 10 -14 11 -22z m-683 -6 c-8 -8 -13 -7 -18 2 -5 8 -4 10 3 5 7 -4 12 -2 12
5 0 7 3 9 7 6 4 -4 2 -12 -4 -18z m1048 -6 c-12 -20 -14 -14 -5 12 4 9 9 14
11 11 3 -2 0 -13 -6 -23z m-824 2 c0 -8 -4 -15 -9 -15 -10 0 -11 14 -1 23 9
10 10 9 10 -8z m80 0 c4 -4 2 -5 -4 -1 -8 4 -13 2 -14 -6 0 -10 -2 -10 -6 0
-2 6 -10 9 -15 6 -6 -4 -8 -2 -5 4 8 12 32 10 44 -3z m53 5 c8 -5 11 -10 5
-10 -5 0 -17 5 -25 10 -8 5 -10 10 -5 10 6 0 17 -5 25 -10z m90 -1 c0 -5 -4
-8 -9 -4 -5 3 -12 1 -16 -5 -3 -5 -11 -10 -18 -10 -6 0 -2 7 9 15 23 17 34 19
34 4z m123 -4 c-3 -9 -8 -14 -10 -11 -3 3 -2 9 2 15 9 16 15 13 8 -4z m199
-17 c-8 -8 -9 -4 -5 13 4 13 8 18 11 10 2 -7 -1 -18 -6 -23z m63 21 c11 -16 1
-19 -13 -3 -7 8 -8 14 -3 14 5 0 13 -5 16 -11z m149 -4 c11 -8 15 -15 9 -15
-7 0 -15 5 -18 10 -4 6 -11 8 -16 5 -5 -4 -9 -1 -9 4 0 15 11 13 34 -4z m41 5
c3 -5 1 -10 -4 -10 -6 0 -11 5 -11 10 0 6 2 10 4 10 3 0 8 -4 11 -10z m-520
-10 c-3 -5 -12 -10 -18 -10 -7 0 -6 4 3 10 19 12 23 12 15 0z m410 -8 c-3 -3
-11 0 -18 7 -9 10 -8 11 6 5 10 -3 15 -9 12 -12z m-969 -16 c0 -14 -5 -21 -9
-17 -4 4 -5 15 -1 24 9 24 12 21 10 -7z m98 -15 c-5 -6 -34 20 -34 30 0 5 8 1
18 -8 10 -10 17 -20 16 -22z m63 24 c0 -8 -4 -12 -9 -9 -5 3 -6 10 -3 15 9 13
12 11 12 -6z m238 6 c3 -5 2 -12 -3 -15 -5 -3 -9 1 -9 9 0 17 3 19 12 6z m40
-1 c-3 -5 -12 -10 -18 -10 -7 0 -6 4 3 10 19 12 23 12 15 0z m75 -10 c-6 -11
-13 -20 -16 -20 -2 0 0 9 6 20 6 11 13 20 16 20 2 0 0 -9 -6 -20z m83 -3 c-5
-8 -8 -7 -11 1 -2 7 -9 9 -14 6 -7 -4 -8 -2 -4 4 4 6 13 9 21 6 8 -4 12 -11 8
-17z m117 -2 c-7 -8 -16 -15 -21 -15 -5 0 -1 8 9 18 20 22 31 19 12 -3z m104
-14 c-5 -6 -34 20 -34 30 0 5 8 1 18 -8 10 -10 17 -20 16 -22z m66 4 c0 -5 -5
-3 -10 5 -5 8 -10 20 -10 25 0 6 5 3 10 -5 5 -8 10 -19 10 -25z m56 23 c4 -7
3 -8 -4 -4 -7 4 -12 2 -12 -4 0 -6 -5 -8 -11 -4 -8 4 -7 9 2 15 18 11 17 11
25 -3z m64 -8 c6 -11 8 -20 6 -20 -3 0 -10 9 -16 20 -6 11 -8 20 -6 20 3 0 10
-9 16 -20z m111 -7 c-12 -20 -14 -14 -5 12 4 9 9 14 11 11 3 -2 0 -13 -6 -23z
m-1143 -8 c-3 -3 -9 2 -12 12 -6 14 -5 15 5 6 7 -7 10 -15 7 -18z m74 3 c-9
-9 -15 -9 -24 1 -11 10 -10 11 5 6 10 -5 17 -2 17 6 0 7 3 9 7 6 4 -4 1 -13
-5 -19z m81 15 c-7 -2 -19 -2 -25 0 -7 3 -2 5 12 5 14 0 19 -2 13 -5z m67 -8
c5 3 11 1 14 -4 4 -5 -2 -8 -11 -7 -9 2 -18 8 -19 15 -1 6 0 7 3 1 2 -5 9 -8
13 -5z m44 -15 c-6 -6 -10 -3 -10 10 0 13 4 16 10 10 7 -7 7 -13 0 -20z m83 3
c1 -22 -1 -24 -8 -10 -6 9 -7 22 -4 27 9 14 10 13 12 -17z m51 15 c-2 -6 -12
-12 -21 -14 -9 -1 -15 2 -11 7 3 5 10 7 15 4 5 -4 9 -1 9 4 0 6 3 11 6 11 3 0
4 -5 2 -12z m393 2 c9 13 10 13 6 0 -2 -8 -10 -15 -17 -15 -7 0 -15 7 -17 15
-4 13 -3 13 6 0 10 -13 12 -13 22 0z m-291 -15 c19 -22 8 -25 -12 -3 -10 10
-14 18 -9 18 5 0 14 -7 21 -15z m80 0 c19 -22 8 -25 -12 -3 -10 10 -14 18 -9
18 5 0 14 -7 21 -15z m74 7 c3 -5 -1 -9 -9 -9 -8 0 -12 4 -9 9 3 4 7 8 9 8 2
0 6 -4 9 -8z m44 -17 c-3 -3 -9 2 -12 12 -6 14 -5 15 5 6 7 -7 10 -15 7 -18z
m175 10 c-3 -9 -8 -14 -10 -11 -3 3 -2 9 2 15 9 16 15 13 8 -4z m120 -3 c-10
-10 -20 -17 -22 -16 -6 5 20 34 30 34 5 0 1 -8 -8 -18z m68 -9 c-12 -20 -14
-14 -5 12 4 9 9 14 11 11 3 -2 0 -13 -6 -23z m129 12 c0 -12 -19 -12 -23 0 -4
9 -1 12 9 8 7 -3 14 -7 14 -8z m-1106 -17 c-5 -8 -2 -9 9 -5 23 9 21 0 -2 -13
-16 -8 -19 -7 -16 8 5 23 4 22 11 22 3 0 2 -5 -2 -12z m479 -19 c-4 -16 -8
-17 -14 -7 -5 7 -4 14 1 16 6 2 7 9 4 14 -4 6 -2 8 4 5 5 -4 8 -16 5 -28z
m204 1 c3 -19 2 -19 -17 -3 -24 21 -25 24 -3 16 12 -5 14 -3 8 8 -4 8 -4 11 0
6 5 -4 10 -16 12 -27z m39 21 c-4 -5 -2 -11 3 -13 5 -1 3 -9 -5 -16 -12 -11
-13 -9 -10 10 6 30 5 28 12 28 3 0 3 -4 0 -9z m299 0 c3 -5 2 -12 -3 -15 -5
-3 -9 1 -9 9 0 17 3 19 12 6z m129 0 c4 -5 -3 -7 -14 -4 -23 6 -26 13 -6 13 8
0 17 -4 20 -9z m-1180 -16 c3 -8 1 -15 -4 -15 -6 0 -10 7 -10 15 0 8 2 15 4
15 2 0 6 -7 10 -15z m141 -3 c-3 -3 -11 0 -18 7 -9 10 -8 11 6 5 10 -3 15 -9
12 -12z m48 -2 c3 -11 0 -23 -5 -27 -7 -3 -8 -1 -4 5 4 7 3 12 -3 12 -6 0 -8
7 -5 15 8 20 11 19 17 -5z m70 7 c3 -7 -3 -13 -13 -13 -10 0 -16 6 -13 13 3 7
9 13 13 13 4 0 10 -6 13 -13z m57 -15 c-6 -2 -7 -9 -4 -14 4 -6 2 -8 -4 -5 -5
4 -8 16 -5 28 4 16 8 17 14 7 5 -7 4 -14 -1 -16z m70 -7 c0 -5 -5 -3 -10 5 -5
8 -10 20 -10 25 0 6 5 3 10 -5 5 -8 10 -19 10 -25z m60 0 c0 -5 -5 -3 -10 5
-5 8 -10 20 -10 25 0 6 5 3 10 -5 5 -8 10 -19 10 -25z m166 12 c1 -9 -2 -15
-7 -11 -5 3 -7 9 -4 14 3 4 0 11 -5 13 -6 3 -5 4 1 3 7 -1 13 -10 15 -19z
m246 16 c-6 -2 -10 -9 -6 -14 3 -5 0 -9 -5 -9 -12 0 -14 13 -4 23 3 4 11 7 17
6 6 0 5 -3 -2 -6z m101 -19 c-7 -19 -10 -18 -16 5 -3 13 -1 18 9 14 7 -2 10
-11 7 -19z m58 -1 c-12 -20 -14 -14 -5 12 4 9 9 14 11 11 3 -2 0 -13 -6 -23z
m74 17 c3 -6 -1 -7 -9 -4 -18 7 -21 14 -7 14 6 0 13 -4 16 -10z m-521 -11 c-2
-4 2 -10 8 -12 8 -4 7 -6 -3 -6 -9 -1 -19 5 -22 12 -3 8 1 14 9 14 7 0 11 -4
8 -8z m641 1 c3 -5 1 -10 -4 -10 -6 0 -11 5 -11 10 0 6 2 10 4 10 3 0 8 -4 11
-10z m-1272 -7 c-7 -2 -19 -2 -25 0 -7 3 -2 5 12 5 14 0 19 -2 13 -5z m144 0
c-9 -2 -14 -9 -11 -15 4 -7 2 -8 -5 -4 -15 10 -4 26 17 25 15 -1 15 -2 -1 -6z
m585 -7 c6 4 8 2 5 -4 -4 -5 -16 -8 -28 -5 -16 4 -17 8 -7 14 7 5 14 4 16 -1
2 -6 9 -7 14 -4z m158 -1 c0 -9 -41 -11 -47 -3 -3 7 -1 8 5 4 7 -4 12 -3 12 3
0 6 7 8 15 5 8 -4 15 -7 15 -9z m82 1 c6 4 8 2 5 -4 -4 -5 -16 -8 -28 -5 -16
4 -17 8 -7 14 7 5 14 4 16 -1 2 -6 9 -7 14 -4z m-1015 -3 c-4 -3 -1 -13 6 -22
11 -14 10 -14 -5 -2 -21 15 -23 31 -6 31 6 0 8 -3 5 -7z m177 -32 c-5 -6 -34
20 -34 30 0 5 8 1 18 -8 10 -10 17 -20 16 -22z m56 14 c-7 -8 -16 -15 -21 -15
-5 0 -1 8 9 18 20 22 31 19 12 -3z m80 0 c-7 -8 -16 -15 -21 -15 -5 0 -1 8 9
18 20 22 31 19 12 -3z m104 -14 c-5 -6 -34 20 -34 30 0 5 8 1 18 -8 10 -10 17
-20 16 -22z m80 0 c-5 -6 -34 20 -34 30 0 5 8 1 18 -8 10 -10 17 -20 16 -22z
m140 -1 c-5 -5 -10 3 -11 18 -1 22 0 24 9 8 6 -10 6 -22 2 -26z m156 15 c-7
-8 -16 -15 -21 -15 -5 0 -1 8 9 18 20 22 31 19 12 -3z m104 -14 c-5 -6 -34 20
-34 30 0 5 8 1 18 -8 10 -10 17 -20 16 -22z m136 14 c-7 -8 -16 -15 -21 -15
-5 0 -1 8 9 18 20 22 31 19 12 -3z m186 13 c5 -7 3 -8 -6 -3 -9 5 -10 1 -6
-16 6 -20 5 -21 -4 -6 -6 9 -8 22 -5 27 8 13 12 13 21 -2z m-59 -5 c-4 -3 1
-11 10 -18 13 -9 13 -14 3 -20 -9 -6 -11 -4 -5 5 6 9 1 10 -16 5 -19 -5 -21
-4 -9 4 8 6 11 11 7 11 -9 0 1 20 10 20 4 0 3 -3 0 -7z m123 -3 c8 -5 12 -11
10 -14 -3 -2 -14 2 -24 10 -22 15 -10 19 14 4z m53 -15 c-7 -21 -12 -19 -10 4
0 11 5 18 9 15 4 -3 5 -11 1 -19z m-1249 7 c2 -4 -4 -8 -14 -8 -10 0 -16 4
-14 8 3 4 9 8 14 8 5 0 11 -4 14 -8z m189 -12 c16 -19 16 -20 -3 -17 -11 2
-23 7 -27 12 -5 4 -2 4 6 0 11 -6 13 -4 8 8 -8 22 -5 21 16 -3z m167 0 c-6
-11 -13 -20 -16 -20 -2 0 0 9 6 20 6 11 13 20 16 20 2 0 0 -9 -6 -20z m164 8
c-3 -5 -10 -6 -15 -3 -5 4 -9 1 -9 -6 0 -7 -3 -10 -6 -6 -9 9 3 24 20 24 8 0
13 -4 10 -9z m116 -2 c-7 -7 -13 -7 -20 0 -6 6 -3 10 10 10 13 0 16 -4 10 -10z
m120 0 c-7 -7 -13 -7 -20 0 -6 6 -3 10 10 10 13 0 16 -4 10 -10z m120 0 c-7
-7 -13 -7 -20 0 -6 6 -3 10 10 10 13 0 16 -4 10 -10z m-840 -7 c0 -5 6 -7 13
-3 6 4 9 3 4 -1 -4 -5 -18 -10 -30 -11 -12 -2 -16 0 -9 2 6 3 10 10 6 15 -3 5
0 9 5 9 6 0 11 -5 11 -11z m240 0 c0 -5 6 -7 13 -3 6 4 9 3 4 -1 -11 -12 -47
-13 -54 -2 -3 6 -1 7 5 3 7 -4 12 -2 12 3 0 6 5 11 10 11 6 0 10 -5 10 -11z
m197 -4 c0 -8 -4 -12 -9 -9 -5 3 -6 10 -3 15 9 13 12 11 12 -6z m558 6 c3 -5
2 -12 -3 -15 -5 -3 -9 1 -9 9 0 17 3 19 12 6z m118 -6 c-3 -9 -8 -14 -10 -11
-3 3 -2 9 2 15 9 16 15 13 8 -4z m-703 1 c0 -2 -7 -7 -16 -10 -8 -3 -12 -2 -9
4 6 10 25 14 25 6z m286 -21 c1 -9 -4 -11 -14 -7 -10 4 -12 7 -4 10 7 2 9 9 5
15 -3 7 -2 8 2 4 5 -4 10 -14 11 -22z m451 2 c-1 -5 -11 -11 -20 -13 -9 -1
-15 2 -11 7 3 5 10 6 16 3 8 -5 9 -1 5 10 -4 11 -3 15 4 11 5 -4 8 -12 6 -18z
m93 19 c0 -3 -4 -8 -10 -11 -5 -3 -10 -1 -10 4 0 6 5 11 10 11 6 0 10 -2 10
-4z m-1400 -16 c-13 -9 -13 -11 0 -20 9 -6 10 -10 3 -10 -15 0 -26 17 -18 30
3 6 12 10 18 10 7 0 6 -4 -3 -10z m83 3 c-7 -2 -19 -2 -25 0 -7 3 -2 5 12 5
14 0 19 -2 13 -5z m27 -8 c-7 -8 -17 -15 -23 -15 -6 0 -2 7 9 15 25 19 30 19
14 0z m86 -5 c0 -12 -4 -16 -9 -11 -5 5 -6 14 -3 20 10 15 12 14 12 -9z m41
14 c-3 -3 -12 -4 -19 -1 -8 3 -5 6 6 6 11 1 17 -2 13 -5z m44 -11 c13 -17 13
-17 -6 -3 -11 8 -22 16 -24 17 -2 2 0 3 6 3 6 0 17 -8 24 -17z m75 -9 c1 -9 0
-13 -4 -10 -3 4 -7 14 -8 22 -1 9 0 13 4 10 3 -4 7 -14 8 -22z m78 11 c-10 -8
-23 -15 -28 -15 -6 0 -1 7 10 15 10 8 23 15 28 15 6 0 1 -7 -10 -15z m87 6
c-8 -5 -10 -14 -6 -22 6 -11 5 -11 -5 -2 -14 12 -6 33 13 33 8 0 7 -3 -2 -9z
m126 -13 c-3 -8 -6 -5 -6 6 -1 11 2 17 5 13 3 -3 4 -12 1 -19z m83 7 c0 -2 -6
-5 -13 -8 -8 -3 -14 1 -14 8 0 7 6 11 14 8 7 -3 13 -6 13 -8z m67 1 c0 -8 -6
-12 -15 -9 -11 5 -11 7 0 14 7 5 13 9 14 9 0 0 1 -6 1 -14z m90 -8 c-3 -8 -6
-5 -6 6 -1 11 2 17 5 13 3 -3 4 -12 1 -19z m83 7 c0 -2 -6 -5 -13 -8 -8 -3
-14 1 -14 8 0 7 6 11 14 8 7 -3 13 -6 13 -8z m67 1 c0 -8 -6 -12 -15 -9 -11 5
-11 7 0 14 7 5 13 9 14 9 0 0 1 -6 1 -14z m60 -8 c-3 -8 -6 -5 -6 6 -1 11 2
17 5 13 3 -3 4 -12 1 -19z m-1060 -3 c0 -8 -4 -12 -9 -9 -4 3 -8 9 -8 15 0 5
4 9 8 9 5 0 9 -7 9 -15z m548 4 c11 -16 1 -19 -13 -3 -7 8 -8 14 -3 14 5 0 13
-5 16 -11z m599 3 c3 -5 -1 -9 -9 -9 -8 0 -15 4 -15 9 0 4 4 8 9 8 6 0 12 -4
15 -8z m56 -24 c0 -19 -16 -5 -17 14 -2 18 0 20 7 8 5 -8 10 -18 10 -22z
m-1075 4 c-3 -3 -11 0 -18 7 -9 10 -8 11 6 5 10 -3 15 -9 12 -12z m160 0 c-3
-3 -11 0 -18 7 -9 10 -8 11 6 5 10 -3 15 -9 12 -12z m160 0 c-3 -3 -11 0 -18
7 -9 10 -8 11 6 5 10 -3 15 -9 12 -12z m275 -3 c0 -5 -4 -9 -8 -9 -5 0 -9 7
-9 15 0 8 4 12 9 9 4 -3 8 -9 8 -15z m240 0 c0 -5 -4 -9 -8 -9 -5 0 -9 7 -9
15 0 8 4 12 9 9 4 -3 8 -9 8 -15z m-169 -12 c-10 -9 -11 -8 -5 6 3 10 9 15 12
12 3 -3 0 -11 -7 -18z m240 0 c-10 -9 -11 -8 -5 6 3 10 9 15 12 12 3 -3 0 -11
-7 -18z m240 0 c-10 -9 -11 -8 -5 6 3 10 9 15 12 12 3 -3 0 -11 -7 -18z m-591
3 c8 -5 11 -10 5 -10 -5 0 -17 5 -25 10 -8 5 -10 10 -5 10 6 0 17 -5 25 -10z
m240 0 c8 -5 11 -10 5 -10 -5 0 -17 5 -25 10 -8 5 -10 10 -5 10 6 0 17 -5 25
-10z m240 0 c8 -5 11 -10 5 -10 -5 0 -17 5 -25 10 -8 5 -10 10 -5 10 6 0 17
-5 25 -10z m237 4 c-3 -3 -12 -4 -19 -1 -8 3 -5 6 6 6 11 1 17 -2 13 -5z"/>
<path d="M2430 3712 c-45 -22 -80 -75 -80 -121 0 -83 73 -154 148 -144 90 12
136 66 129 151 -4 62 -39 106 -96 122 -49 14 -61 13 -101 -8z"/>
<path d="M5402 3714 c-89 -45 -105 -159 -33 -228 91 -87 245 -14 235 110 -3
43 -28 88 -59 108 -38 25 -103 29 -143 10z"/>
<path d="M2440 3272 c-32 -14 -60 -39 -75 -68 -13 -25 -15 -118 -15 -702 0
-742 -2 -721 63 -760 46 -29 118 -29 158 -1 63 45 61 14 61 759 l0 678 -24 36
c-35 55 -114 82 -168 58z"/>
<path d="M5389 3257 c-70 -47 -67 -12 -66 -767 2 -668 2 -679 23 -706 35 -47
66 -65 118 -66 52 -1 84 17 120 66 21 27 21 37 21 709 0 755 3 718 -65 765
-44 30 -106 29 -151 -1z"/>
</g>
</svg>
